# xmcd
#
# Track frame offsets:
#	150
#	14149
#	31082
#	47819
#	75144
#	86825
#	100128
#	114424
#	129485
#	145274
#	160886
#
# Disc length: 2339 seconds
# Revision: 0
# Processed by: cddbd v1.5.2PL0 Copyright (c) Steve Scherf et al.
# Submitted via: dBpowerAMP V12.0
#
DISCID=8409210b
DTITLE=Big Al and The Heavyweights - Sunshine On Me
DYEAR=2013
DGENRE=Blues
TTITLE0=Don't You Want Me
TTITLE1=What's Up With That
TTITLE2=Sunshine On Me
TTITLE3=Money Matters
TTITLE4=Won't You Dance With Me
TTITLE5=Pass A Good Time
TTITLE6=What Was I Thinking
TTITLE7=Midnight Train To Memphis
TTITLE8=Peaches
TTITLE9=So Many Women
TTITLE10=Zydeco Boogie
EXTD=
EXTT0=
EXTT1=
EXTT2=
EXTT3=
EXTT4=
EXTT5=
EXTT6=
EXTT7=
EXTT8=
EXTT9=
EXTT10=
PLAYORDER=
